<mxfile host="app.diagrams.net" agent="Mozilla/5.0 (Windows NT 10.0; Win64; x64) AppleWebKit/537.36 (KHTML, like Gecko) Chrome/128.0.0.0 Safari/537.36" version="24.7.6">
  <diagram name="Página-1" id="2nONWsuq-D9q45XYOD4Z">
    <mxGraphModel dx="1687" dy="918" grid="1" gridSize="10" guides="1" tooltips="1" connect="1" arrows="1" fold="1" page="1" pageScale="1" pageWidth="827" pageHeight="1169" math="0" shadow="0">
      <root>
        <mxCell id="0" />
        <mxCell id="1" parent="0" />
        <mxCell id="Fcs0OWvwogowU4j8mmiG-7" style="rounded=0;orthogonalLoop=1;jettySize=auto;html=1;exitX=0.5;exitY=0.5;exitDx=0;exitDy=0;exitPerimeter=0;entryX=0;entryY=0;entryDx=0;entryDy=0;" edge="1" parent="1" source="Fcs0OWvwogowU4j8mmiG-2" target="Fcs0OWvwogowU4j8mmiG-4">
          <mxGeometry relative="1" as="geometry" />
        </mxCell>
        <mxCell id="Fcs0OWvwogowU4j8mmiG-2" value="Colaborador&lt;div&gt;Geral&lt;/div&gt;" style="shape=umlActor;verticalLabelPosition=bottom;verticalAlign=top;html=1;fillColor=#d5e8d4;strokeColor=#82b366;" vertex="1" parent="1">
          <mxGeometry x="48" y="70" width="30" height="60" as="geometry" />
        </mxCell>
        <mxCell id="Fcs0OWvwogowU4j8mmiG-4" value="&lt;div&gt;RF001&lt;/div&gt;Cadastrar-se" style="ellipse;whiteSpace=wrap;html=1;fillColor=#fff2cc;strokeColor=#d6b656;" vertex="1" parent="1">
          <mxGeometry x="128" y="120" width="90" height="60" as="geometry" />
        </mxCell>
        <mxCell id="Fcs0OWvwogowU4j8mmiG-5" value="&lt;div&gt;RF001.1&lt;/div&gt;Preencher campos obrigatórios" style="ellipse;whiteSpace=wrap;html=1;fillColor=#fff2cc;strokeColor=#d6b656;" vertex="1" parent="1">
          <mxGeometry x="290" y="70" width="120" height="70" as="geometry" />
        </mxCell>
        <mxCell id="Fcs0OWvwogowU4j8mmiG-6" value="&lt;div&gt;RF001.2&lt;/div&gt;&lt;div&gt;Validar cadastro&lt;/div&gt;" style="ellipse;whiteSpace=wrap;html=1;fillColor=#fff2cc;strokeColor=#d6b656;" vertex="1" parent="1">
          <mxGeometry x="292" y="170" width="106" height="60" as="geometry" />
        </mxCell>
        <mxCell id="Fcs0OWvwogowU4j8mmiG-9" style="rounded=0;orthogonalLoop=1;jettySize=auto;html=1;exitX=1;exitY=0;exitDx=0;exitDy=0;entryX=0;entryY=0.414;entryDx=0;entryDy=0;entryPerimeter=0;endArrow=open;endFill=0;dashed=1;" edge="1" parent="1" source="Fcs0OWvwogowU4j8mmiG-4" target="Fcs0OWvwogowU4j8mmiG-5">
          <mxGeometry relative="1" as="geometry" />
        </mxCell>
        <mxCell id="Fcs0OWvwogowU4j8mmiG-82" value="&amp;lt;&amp;lt;include&amp;gt;&amp;gt;" style="edgeLabel;html=1;align=center;verticalAlign=middle;resizable=0;points=[];" vertex="1" connectable="0" parent="Fcs0OWvwogowU4j8mmiG-9">
          <mxGeometry x="-0.2283" relative="1" as="geometry">
            <mxPoint as="offset" />
          </mxGeometry>
        </mxCell>
        <mxCell id="Fcs0OWvwogowU4j8mmiG-10" value="&amp;lt;&amp;lt;include&amp;gt;&amp;gt;" style="rounded=0;orthogonalLoop=1;jettySize=auto;html=1;exitX=1;exitY=1;exitDx=0;exitDy=0;entryX=0;entryY=0.5;entryDx=0;entryDy=0;endArrow=open;endFill=0;dashed=1;" edge="1" parent="1" source="Fcs0OWvwogowU4j8mmiG-4" target="Fcs0OWvwogowU4j8mmiG-6">
          <mxGeometry relative="1" as="geometry">
            <mxPoint x="215" y="139" as="sourcePoint" />
            <mxPoint x="298" y="109" as="targetPoint" />
          </mxGeometry>
        </mxCell>
        <mxCell id="Fcs0OWvwogowU4j8mmiG-17" style="rounded=0;orthogonalLoop=1;jettySize=auto;html=1;exitX=0.5;exitY=0.5;exitDx=0;exitDy=0;exitPerimeter=0;entryX=0;entryY=1;entryDx=0;entryDy=0;" edge="1" source="Fcs0OWvwogowU4j8mmiG-18" target="Fcs0OWvwogowU4j8mmiG-19" parent="1">
          <mxGeometry relative="1" as="geometry" />
        </mxCell>
        <mxCell id="Fcs0OWvwogowU4j8mmiG-18" value="Executor&lt;div&gt;Manutenção&lt;/div&gt;" style="shape=umlActor;verticalLabelPosition=bottom;verticalAlign=top;html=1;fillColor=#dae8fc;strokeColor=#6c8ebf;" vertex="1" parent="1">
          <mxGeometry x="430" y="180" width="30" height="60" as="geometry" />
        </mxCell>
        <mxCell id="Fcs0OWvwogowU4j8mmiG-19" value="&lt;div&gt;RF002&lt;/div&gt;Fazer login" style="ellipse;whiteSpace=wrap;html=1;fillColor=#fff2cc;strokeColor=#d6b656;" vertex="1" parent="1">
          <mxGeometry x="519" y="130" width="90" height="60" as="geometry" />
        </mxCell>
        <mxCell id="Fcs0OWvwogowU4j8mmiG-20" value="&lt;div&gt;RF002.1&lt;/div&gt;Preencher&lt;div&gt;matricula e pin&lt;/div&gt;" style="ellipse;whiteSpace=wrap;html=1;fillColor=#fff2cc;strokeColor=#d6b656;" vertex="1" parent="1">
          <mxGeometry x="642" y="80" width="120" height="70" as="geometry" />
        </mxCell>
        <mxCell id="Fcs0OWvwogowU4j8mmiG-21" value="&lt;div&gt;RF002.2&lt;/div&gt;&lt;div&gt;Validar acesso&lt;/div&gt;" style="ellipse;whiteSpace=wrap;html=1;fillColor=#fff2cc;strokeColor=#d6b656;" vertex="1" parent="1">
          <mxGeometry x="656" y="180" width="106" height="60" as="geometry" />
        </mxCell>
        <mxCell id="Fcs0OWvwogowU4j8mmiG-22" style="rounded=0;orthogonalLoop=1;jettySize=auto;html=1;exitX=1;exitY=0;exitDx=0;exitDy=0;entryX=0;entryY=0.414;entryDx=0;entryDy=0;entryPerimeter=0;endArrow=open;endFill=0;dashed=1;" edge="1" source="Fcs0OWvwogowU4j8mmiG-19" target="Fcs0OWvwogowU4j8mmiG-20" parent="1">
          <mxGeometry relative="1" as="geometry" />
        </mxCell>
        <mxCell id="Fcs0OWvwogowU4j8mmiG-23" style="rounded=0;orthogonalLoop=1;jettySize=auto;html=1;exitX=1;exitY=1;exitDx=0;exitDy=0;entryX=0;entryY=0.5;entryDx=0;entryDy=0;endArrow=open;endFill=0;dashed=1;" edge="1" source="Fcs0OWvwogowU4j8mmiG-19" target="Fcs0OWvwogowU4j8mmiG-21" parent="1">
          <mxGeometry relative="1" as="geometry">
            <mxPoint x="647" y="119" as="sourcePoint" />
            <mxPoint x="730" y="89" as="targetPoint" />
          </mxGeometry>
        </mxCell>
        <mxCell id="Fcs0OWvwogowU4j8mmiG-77" value="Executor&lt;div&gt;Manutenção&lt;/div&gt;" style="shape=umlActor;verticalLabelPosition=bottom;verticalAlign=top;html=1;fillColor=#dae8fc;strokeColor=#6c8ebf;" vertex="1" parent="1">
          <mxGeometry x="48" y="170" width="30" height="60" as="geometry" />
        </mxCell>
        <mxCell id="Fcs0OWvwogowU4j8mmiG-78" style="rounded=0;orthogonalLoop=1;jettySize=auto;html=1;exitX=0.5;exitY=0.5;exitDx=0;exitDy=0;exitPerimeter=0;entryX=0;entryY=1;entryDx=0;entryDy=0;" edge="1" parent="1" source="Fcs0OWvwogowU4j8mmiG-77" target="Fcs0OWvwogowU4j8mmiG-4">
          <mxGeometry relative="1" as="geometry">
            <mxPoint x="33" y="90" as="sourcePoint" />
            <mxPoint x="151" y="139" as="targetPoint" />
          </mxGeometry>
        </mxCell>
        <mxCell id="Fcs0OWvwogowU4j8mmiG-80" style="rounded=0;orthogonalLoop=1;jettySize=auto;html=1;exitX=0.5;exitY=0.5;exitDx=0;exitDy=0;exitPerimeter=0;entryX=0;entryY=0;entryDx=0;entryDy=0;" edge="1" parent="1" source="Fcs0OWvwogowU4j8mmiG-81" target="Fcs0OWvwogowU4j8mmiG-19">
          <mxGeometry relative="1" as="geometry">
            <mxPoint x="465" y="220" as="sourcePoint" />
            <mxPoint x="583" y="161" as="targetPoint" />
          </mxGeometry>
        </mxCell>
        <mxCell id="Fcs0OWvwogowU4j8mmiG-81" value="Colaborador&lt;div&gt;Geral&lt;/div&gt;" style="shape=umlActor;verticalLabelPosition=bottom;verticalAlign=top;html=1;fillColor=#d5e8d4;strokeColor=#82b366;" vertex="1" parent="1">
          <mxGeometry x="430" y="70" width="30" height="60" as="geometry" />
        </mxCell>
        <mxCell id="Fcs0OWvwogowU4j8mmiG-83" value="Projeto: ServFacil&lt;div&gt;UML - DCU&lt;/div&gt;" style="text;html=1;align=center;verticalAlign=middle;whiteSpace=wrap;rounded=0;" vertex="1" parent="1">
          <mxGeometry x="115" y="40" width="156" height="40" as="geometry" />
        </mxCell>
        <mxCell id="Fcs0OWvwogowU4j8mmiG-84" value="Projeto: ServFacil&lt;div&gt;UML - DCU&lt;/div&gt;" style="text;html=1;align=center;verticalAlign=middle;whiteSpace=wrap;rounded=0;" vertex="1" parent="1">
          <mxGeometry x="510" y="30" width="156" height="40" as="geometry" />
        </mxCell>
        <mxCell id="Fcs0OWvwogowU4j8mmiG-87" value="&lt;div&gt;RF003&lt;/div&gt;Abrir nova OS" style="ellipse;whiteSpace=wrap;html=1;fillColor=#fff2cc;strokeColor=#d6b656;" vertex="1" parent="1">
          <mxGeometry x="356" y="360" width="90" height="60" as="geometry" />
        </mxCell>
        <mxCell id="Fcs0OWvwogowU4j8mmiG-89" value="&lt;div&gt;RF003.1&lt;/div&gt;&lt;div&gt;Preencher descrição&lt;/div&gt;" style="ellipse;whiteSpace=wrap;html=1;fillColor=#fff2cc;strokeColor=#d6b656;" vertex="1" parent="1">
          <mxGeometry x="552" y="360" width="106" height="60" as="geometry" />
        </mxCell>
        <mxCell id="Fcs0OWvwogowU4j8mmiG-90" value="&amp;lt;&amp;lt;include&amp;gt;&amp;gt;" style="rounded=0;orthogonalLoop=1;jettySize=auto;html=1;exitX=1;exitY=0;exitDx=0;exitDy=0;endArrow=open;endFill=0;dashed=1;" edge="1" source="Fcs0OWvwogowU4j8mmiG-87" target="Fcs0OWvwogowU4j8mmiG-95" parent="1">
          <mxGeometry relative="1" as="geometry">
            <mxPoint x="525.9999999999998" y="308.98" as="targetPoint" />
          </mxGeometry>
        </mxCell>
        <mxCell id="Fcs0OWvwogowU4j8mmiG-91" style="rounded=0;orthogonalLoop=1;jettySize=auto;html=1;exitX=1;exitY=0.5;exitDx=0;exitDy=0;entryX=0;entryY=0.5;entryDx=0;entryDy=0;endArrow=open;endFill=0;dashed=1;" edge="1" source="Fcs0OWvwogowU4j8mmiG-87" target="Fcs0OWvwogowU4j8mmiG-89" parent="1">
          <mxGeometry relative="1" as="geometry">
            <mxPoint x="453" y="349" as="sourcePoint" />
            <mxPoint x="536" y="319" as="targetPoint" />
          </mxGeometry>
        </mxCell>
        <mxCell id="Fcs0OWvwogowU4j8mmiG-92" style="rounded=0;orthogonalLoop=1;jettySize=auto;html=1;exitX=0.5;exitY=0.5;exitDx=0;exitDy=0;exitPerimeter=0;entryX=0;entryY=0;entryDx=0;entryDy=0;" edge="1" source="Fcs0OWvwogowU4j8mmiG-93" target="Fcs0OWvwogowU4j8mmiG-87" parent="1">
          <mxGeometry relative="1" as="geometry">
            <mxPoint x="271" y="450" as="sourcePoint" />
            <mxPoint x="389" y="391" as="targetPoint" />
          </mxGeometry>
        </mxCell>
        <mxCell id="Fcs0OWvwogowU4j8mmiG-93" value="Colaborador&lt;div&gt;Geral&lt;/div&gt;" style="shape=umlActor;verticalLabelPosition=bottom;verticalAlign=top;html=1;fillColor=#d5e8d4;strokeColor=#82b366;" vertex="1" parent="1">
          <mxGeometry x="236" y="310" width="30" height="60" as="geometry" />
        </mxCell>
        <mxCell id="Fcs0OWvwogowU4j8mmiG-94" value="Projeto: ServFacil&lt;div&gt;UML - DCU&lt;/div&gt;" style="text;html=1;align=center;verticalAlign=middle;whiteSpace=wrap;rounded=0;" vertex="1" parent="1">
          <mxGeometry x="316" y="290" width="156" height="40" as="geometry" />
        </mxCell>
        <mxCell id="Fcs0OWvwogowU4j8mmiG-95" value="&lt;div&gt;RF002&lt;/div&gt;Fazer login" style="ellipse;whiteSpace=wrap;html=1;fillColor=#fff2cc;strokeColor=#d6b656;" vertex="1" parent="1">
          <mxGeometry x="506" y="290" width="90" height="60" as="geometry" />
        </mxCell>
        <mxCell id="Fcs0OWvwogowU4j8mmiG-96" value="&lt;div&gt;RF003.2&lt;/div&gt;&lt;div&gt;Obter, data hora e localização&lt;/div&gt;" style="ellipse;whiteSpace=wrap;html=1;fillColor=#fff2cc;strokeColor=#d6b656;" vertex="1" parent="1">
          <mxGeometry x="506" y="430" width="106" height="60" as="geometry" />
        </mxCell>
        <mxCell id="Fcs0OWvwogowU4j8mmiG-97" style="rounded=0;orthogonalLoop=1;jettySize=auto;html=1;exitX=1;exitY=1;exitDx=0;exitDy=0;entryX=0;entryY=0;entryDx=0;entryDy=0;endArrow=open;endFill=0;dashed=1;" edge="1" parent="1" source="Fcs0OWvwogowU4j8mmiG-87" target="Fcs0OWvwogowU4j8mmiG-96">
          <mxGeometry relative="1" as="geometry">
            <mxPoint x="456" y="400" as="sourcePoint" />
            <mxPoint x="562" y="400" as="targetPoint" />
          </mxGeometry>
        </mxCell>
        <mxCell id="Fcs0OWvwogowU4j8mmiG-100" value="&lt;div&gt;RF004&lt;/div&gt;&lt;div&gt;Listar&lt;span style=&quot;background-color: initial;&quot;&gt;&amp;nbsp;todas as suas OS&lt;/span&gt;&lt;/div&gt;" style="ellipse;whiteSpace=wrap;html=1;fillColor=#d5e8d4;strokeColor=#82b366;" vertex="1" parent="1">
          <mxGeometry x="152" y="610" width="90" height="60" as="geometry" />
        </mxCell>
        <mxCell id="Fcs0OWvwogowU4j8mmiG-101" value="&lt;div&gt;RF005&lt;/div&gt;&lt;div&gt;Exibir detalhes da OS&lt;/div&gt;" style="ellipse;whiteSpace=wrap;html=1;fillColor=#d5e8d4;strokeColor=#82b366;" vertex="1" parent="1">
          <mxGeometry x="372" y="610" width="106" height="60" as="geometry" />
        </mxCell>
        <mxCell id="Fcs0OWvwogowU4j8mmiG-102" value="&amp;lt;&amp;lt;include&amp;gt;&amp;gt;" style="rounded=0;orthogonalLoop=1;jettySize=auto;html=1;exitX=1;exitY=0;exitDx=0;exitDy=0;endArrow=open;endFill=0;dashed=1;" edge="1" source="Fcs0OWvwogowU4j8mmiG-100" target="Fcs0OWvwogowU4j8mmiG-107" parent="1">
          <mxGeometry relative="1" as="geometry">
            <mxPoint x="321.9999999999998" y="558.98" as="targetPoint" />
          </mxGeometry>
        </mxCell>
        <mxCell id="Fcs0OWvwogowU4j8mmiG-103" value="&amp;lt;&amp;lt;extends&amp;gt;&amp;gt;" style="rounded=0;orthogonalLoop=1;jettySize=auto;html=1;entryX=1;entryY=0.5;entryDx=0;entryDy=0;endArrow=open;endFill=0;dashed=1;exitX=0;exitY=0.5;exitDx=0;exitDy=0;" edge="1" source="Fcs0OWvwogowU4j8mmiG-101" target="Fcs0OWvwogowU4j8mmiG-100" parent="1">
          <mxGeometry relative="1" as="geometry">
            <mxPoint x="312" y="680" as="sourcePoint" />
            <mxPoint x="332" y="569" as="targetPoint" />
          </mxGeometry>
        </mxCell>
        <mxCell id="Fcs0OWvwogowU4j8mmiG-104" style="rounded=0;orthogonalLoop=1;jettySize=auto;html=1;exitX=0.5;exitY=0.5;exitDx=0;exitDy=0;exitPerimeter=0;entryX=0;entryY=0.5;entryDx=0;entryDy=0;" edge="1" source="Fcs0OWvwogowU4j8mmiG-105" target="Fcs0OWvwogowU4j8mmiG-100" parent="1">
          <mxGeometry relative="1" as="geometry">
            <mxPoint x="67" y="700" as="sourcePoint" />
            <mxPoint x="185" y="641" as="targetPoint" />
          </mxGeometry>
        </mxCell>
        <mxCell id="Fcs0OWvwogowU4j8mmiG-105" value="Colaborador&lt;div&gt;Geral&lt;/div&gt;" style="shape=umlActor;verticalLabelPosition=bottom;verticalAlign=top;html=1;fillColor=#d5e8d4;strokeColor=#82b366;" vertex="1" parent="1">
          <mxGeometry x="32" y="610" width="30" height="60" as="geometry" />
        </mxCell>
        <mxCell id="Fcs0OWvwogowU4j8mmiG-106" value="Projeto: ServFacil&lt;div&gt;UML - DCU&lt;/div&gt;" style="text;html=1;align=center;verticalAlign=middle;whiteSpace=wrap;rounded=0;" vertex="1" parent="1">
          <mxGeometry x="112" y="540" width="156" height="40" as="geometry" />
        </mxCell>
        <mxCell id="Fcs0OWvwogowU4j8mmiG-107" value="&lt;div&gt;RF002&lt;/div&gt;Fazer login" style="ellipse;whiteSpace=wrap;html=1;fillColor=#fff2cc;strokeColor=#d6b656;" vertex="1" parent="1">
          <mxGeometry x="302" y="540" width="90" height="60" as="geometry" />
        </mxCell>
        <mxCell id="Fcs0OWvwogowU4j8mmiG-110" value="&lt;div&gt;RF005&lt;/div&gt;&lt;div&gt;Exibir detalhes da OS&lt;br&gt;&lt;/div&gt;" style="ellipse;whiteSpace=wrap;html=1;fillColor=#d5e8d4;strokeColor=#82b366;" vertex="1" parent="1">
          <mxGeometry x="457" y="850" width="90" height="60" as="geometry" />
        </mxCell>
        <mxCell id="Fcs0OWvwogowU4j8mmiG-111" value="&lt;div&gt;RF005.1&lt;/div&gt;&lt;div&gt;Listar todos os comentários&lt;/div&gt;" style="ellipse;whiteSpace=wrap;html=1;fillColor=#d5e8d4;strokeColor=#82b366;" vertex="1" parent="1">
          <mxGeometry x="653" y="850" width="106" height="60" as="geometry" />
        </mxCell>
        <mxCell id="Fcs0OWvwogowU4j8mmiG-112" value="&amp;lt;&amp;lt;include&amp;gt;&amp;gt;" style="rounded=0;orthogonalLoop=1;jettySize=auto;html=1;exitX=1;exitY=0;exitDx=0;exitDy=0;endArrow=open;endFill=0;dashed=1;" edge="1" parent="1" source="Fcs0OWvwogowU4j8mmiG-110" target="Fcs0OWvwogowU4j8mmiG-117">
          <mxGeometry relative="1" as="geometry">
            <mxPoint x="626.9999999999998" y="798.98" as="targetPoint" />
          </mxGeometry>
        </mxCell>
        <mxCell id="Fcs0OWvwogowU4j8mmiG-113" style="rounded=0;orthogonalLoop=1;jettySize=auto;html=1;exitX=1;exitY=0.5;exitDx=0;exitDy=0;entryX=0;entryY=0.5;entryDx=0;entryDy=0;endArrow=open;endFill=0;dashed=1;" edge="1" parent="1" source="Fcs0OWvwogowU4j8mmiG-110" target="Fcs0OWvwogowU4j8mmiG-111">
          <mxGeometry relative="1" as="geometry">
            <mxPoint x="554" y="839" as="sourcePoint" />
            <mxPoint x="637" y="809" as="targetPoint" />
          </mxGeometry>
        </mxCell>
        <mxCell id="Fcs0OWvwogowU4j8mmiG-114" style="rounded=0;orthogonalLoop=1;jettySize=auto;html=1;exitX=0.5;exitY=0.5;exitDx=0;exitDy=0;exitPerimeter=0;entryX=0;entryY=0.5;entryDx=0;entryDy=0;" edge="1" parent="1" source="Fcs0OWvwogowU4j8mmiG-152" target="Fcs0OWvwogowU4j8mmiG-110">
          <mxGeometry relative="1" as="geometry">
            <mxPoint x="358" y="880" as="sourcePoint" />
            <mxPoint x="490" y="881" as="targetPoint" />
          </mxGeometry>
        </mxCell>
        <mxCell id="Fcs0OWvwogowU4j8mmiG-116" value="Projeto: ServFacil&lt;div&gt;UML - DCU&lt;/div&gt;" style="text;html=1;align=center;verticalAlign=middle;whiteSpace=wrap;rounded=0;" vertex="1" parent="1">
          <mxGeometry x="417" y="770" width="156" height="40" as="geometry" />
        </mxCell>
        <mxCell id="Fcs0OWvwogowU4j8mmiG-117" value="&lt;div&gt;RF004&lt;/div&gt;Listar todas as suas OSs" style="ellipse;whiteSpace=wrap;html=1;fillColor=#d5e8d4;strokeColor=#82b366;" vertex="1" parent="1">
          <mxGeometry x="607" y="780" width="90" height="60" as="geometry" />
        </mxCell>
        <mxCell id="Fcs0OWvwogowU4j8mmiG-118" value="&lt;div&gt;RF005.2&lt;/div&gt;&lt;div&gt;Alterar descrição&lt;/div&gt;&lt;div&gt;se aberta&lt;/div&gt;" style="ellipse;whiteSpace=wrap;html=1;fillColor=#d5e8d4;strokeColor=#82b366;" vertex="1" parent="1">
          <mxGeometry x="450" y="970" width="110" height="50" as="geometry" />
        </mxCell>
        <mxCell id="Fcs0OWvwogowU4j8mmiG-119" value="&lt;div&gt;RF005.3&lt;/div&gt;&lt;div&gt;Adicionar comentários&lt;/div&gt;&lt;div&gt;se aberta&lt;/div&gt;" style="ellipse;whiteSpace=wrap;html=1;fillColor=#d5e8d4;strokeColor=#82b366;" vertex="1" parent="1">
          <mxGeometry x="567" y="960" width="130" height="70" as="geometry" />
        </mxCell>
        <mxCell id="Fcs0OWvwogowU4j8mmiG-120" value="&lt;div&gt;RF004.1&lt;/div&gt;&lt;div&gt;Categorizar por cor entre encerradas abertas, atendimento&lt;/div&gt;" style="ellipse;whiteSpace=wrap;html=1;fillColor=#d5e8d4;strokeColor=#82b366;" vertex="1" parent="1">
          <mxGeometry x="294" y="680" width="150" height="80" as="geometry" />
        </mxCell>
        <mxCell id="Fcs0OWvwogowU4j8mmiG-121" value="&amp;lt;&amp;lt;include&amp;gt;&amp;gt;" style="rounded=0;orthogonalLoop=1;jettySize=auto;html=1;exitX=1;exitY=1;exitDx=0;exitDy=0;endArrow=open;endFill=0;dashed=1;entryX=0;entryY=0;entryDx=0;entryDy=0;" edge="1" parent="1" source="Fcs0OWvwogowU4j8mmiG-100" target="Fcs0OWvwogowU4j8mmiG-120">
          <mxGeometry relative="1" as="geometry">
            <mxPoint x="239" y="629" as="sourcePoint" />
            <mxPoint x="319" y="596" as="targetPoint" />
          </mxGeometry>
        </mxCell>
        <mxCell id="Fcs0OWvwogowU4j8mmiG-122" value="&lt;div&gt;RF005.3&lt;/div&gt;&lt;div&gt;Excluir OS&lt;/div&gt;&lt;div&gt;se aberta&lt;/div&gt;" style="ellipse;whiteSpace=wrap;html=1;fillColor=#d5e8d4;strokeColor=#82b366;" vertex="1" parent="1">
          <mxGeometry x="687" y="920" width="100" height="60" as="geometry" />
        </mxCell>
        <mxCell id="Fcs0OWvwogowU4j8mmiG-124" value="&amp;lt;&amp;lt;extends&amp;gt;&amp;gt;" style="rounded=0;orthogonalLoop=1;jettySize=auto;html=1;exitX=0.5;exitY=0;exitDx=0;exitDy=0;entryX=0.724;entryY=0.976;entryDx=0;entryDy=0;endArrow=open;endFill=0;dashed=1;entryPerimeter=0;" edge="1" parent="1" source="Fcs0OWvwogowU4j8mmiG-119" target="Fcs0OWvwogowU4j8mmiG-110">
          <mxGeometry relative="1" as="geometry">
            <mxPoint x="726" y="950" as="sourcePoint" />
            <mxPoint x="544" y="911" as="targetPoint" />
          </mxGeometry>
        </mxCell>
        <mxCell id="Fcs0OWvwogowU4j8mmiG-125" value="&amp;lt;&amp;lt;extends&amp;gt;&amp;gt;" style="rounded=0;orthogonalLoop=1;jettySize=auto;html=1;exitX=0;exitY=0;exitDx=0;exitDy=0;entryX=1;entryY=1;entryDx=0;entryDy=0;endArrow=open;endFill=0;dashed=1;" edge="1" parent="1" source="Fcs0OWvwogowU4j8mmiG-122" target="Fcs0OWvwogowU4j8mmiG-110">
          <mxGeometry relative="1" as="geometry">
            <mxPoint x="652" y="990" as="sourcePoint" />
            <mxPoint x="554" y="921" as="targetPoint" />
          </mxGeometry>
        </mxCell>
        <mxCell id="Fcs0OWvwogowU4j8mmiG-126" value="&amp;lt;&amp;lt;extends&amp;gt;&amp;gt;" style="rounded=0;orthogonalLoop=1;jettySize=auto;html=1;exitX=0.5;exitY=0;exitDx=0;exitDy=0;entryX=0.5;entryY=1;entryDx=0;entryDy=0;endArrow=open;endFill=0;dashed=1;" edge="1" parent="1" source="Fcs0OWvwogowU4j8mmiG-118" target="Fcs0OWvwogowU4j8mmiG-110">
          <mxGeometry relative="1" as="geometry">
            <mxPoint x="652" y="990" as="sourcePoint" />
            <mxPoint x="532" y="919" as="targetPoint" />
          </mxGeometry>
        </mxCell>
        <mxCell id="Fcs0OWvwogowU4j8mmiG-127" value="&lt;div&gt;RF007&lt;/div&gt;&lt;div&gt;Exibir detalhes da OS em atendimento&lt;br&gt;&lt;/div&gt;" style="ellipse;whiteSpace=wrap;html=1;fillColor=#dae8fc;strokeColor=#6c8ebf;" vertex="1" parent="1">
          <mxGeometry x="437" y="1634.6699999999998" width="106" height="70.67" as="geometry" />
        </mxCell>
        <mxCell id="Fcs0OWvwogowU4j8mmiG-128" value="&lt;div&gt;RF005.1&lt;/div&gt;&lt;div&gt;Listar todos os comentários&lt;/div&gt;" style="ellipse;whiteSpace=wrap;html=1;fillColor=#dae8fc;strokeColor=#6c8ebf;" vertex="1" parent="1">
          <mxGeometry x="653" y="1640" width="106" height="60" as="geometry" />
        </mxCell>
        <mxCell id="Fcs0OWvwogowU4j8mmiG-129" value="&amp;lt;&amp;lt;include&amp;gt;&amp;gt;" style="rounded=0;orthogonalLoop=1;jettySize=auto;html=1;exitX=1;exitY=0;exitDx=0;exitDy=0;endArrow=open;endFill=0;dashed=1;" edge="1" parent="1" source="Fcs0OWvwogowU4j8mmiG-127" target="Fcs0OWvwogowU4j8mmiG-134">
          <mxGeometry relative="1" as="geometry">
            <mxPoint x="617.9999999999998" y="1588.98" as="targetPoint" />
          </mxGeometry>
        </mxCell>
        <mxCell id="Fcs0OWvwogowU4j8mmiG-130" style="rounded=0;orthogonalLoop=1;jettySize=auto;html=1;exitX=1;exitY=0.5;exitDx=0;exitDy=0;entryX=0;entryY=0.5;entryDx=0;entryDy=0;endArrow=open;endFill=0;dashed=1;" edge="1" parent="1" source="Fcs0OWvwogowU4j8mmiG-127" target="Fcs0OWvwogowU4j8mmiG-128">
          <mxGeometry relative="1" as="geometry">
            <mxPoint x="545" y="1629" as="sourcePoint" />
            <mxPoint x="628" y="1599" as="targetPoint" />
          </mxGeometry>
        </mxCell>
        <mxCell id="Fcs0OWvwogowU4j8mmiG-131" style="rounded=0;orthogonalLoop=1;jettySize=auto;html=1;exitX=0.5;exitY=0.5;exitDx=0;exitDy=0;exitPerimeter=0;entryX=0;entryY=0.5;entryDx=0;entryDy=0;" edge="1" parent="1" source="Fcs0OWvwogowU4j8mmiG-153" target="Fcs0OWvwogowU4j8mmiG-127">
          <mxGeometry relative="1" as="geometry">
            <mxPoint x="343" y="1670" as="sourcePoint" />
            <mxPoint x="481" y="1671" as="targetPoint" />
          </mxGeometry>
        </mxCell>
        <mxCell id="Fcs0OWvwogowU4j8mmiG-133" value="Projeto: ServFacil&lt;div&gt;UML - DCU&lt;/div&gt;" style="text;html=1;align=center;verticalAlign=middle;whiteSpace=wrap;rounded=0;" vertex="1" parent="1">
          <mxGeometry x="409" y="1560" width="156" height="40" as="geometry" />
        </mxCell>
        <mxCell id="Fcs0OWvwogowU4j8mmiG-134" value="&lt;div&gt;RF006&lt;/div&gt;Listar OSs abertas" style="ellipse;whiteSpace=wrap;html=1;fillColor=#dae8fc;strokeColor=#6c8ebf;" vertex="1" parent="1">
          <mxGeometry x="612" y="1560" width="90" height="60" as="geometry" />
        </mxCell>
        <mxCell id="Fcs0OWvwogowU4j8mmiG-136" value="&lt;div&gt;RF007.1&lt;/div&gt;&lt;div&gt;Adicionar comentário&lt;/div&gt;" style="ellipse;whiteSpace=wrap;html=1;fillColor=#dae8fc;strokeColor=#6c8ebf;" vertex="1" parent="1">
          <mxGeometry x="614" y="1720" width="84" height="50" as="geometry" />
        </mxCell>
        <mxCell id="Fcs0OWvwogowU4j8mmiG-138" value="&amp;lt;&amp;lt;extends&amp;gt;&amp;gt;" style="rounded=0;orthogonalLoop=1;jettySize=auto;html=1;exitX=0;exitY=0;exitDx=0;exitDy=0;entryX=1;entryY=1;entryDx=0;entryDy=0;endArrow=open;endFill=0;dashed=1;" edge="1" parent="1" source="Fcs0OWvwogowU4j8mmiG-136" target="Fcs0OWvwogowU4j8mmiG-127">
          <mxGeometry relative="1" as="geometry">
            <mxPoint x="717" y="1740" as="sourcePoint" />
            <mxPoint x="535" y="1701" as="targetPoint" />
          </mxGeometry>
        </mxCell>
        <mxCell id="Fcs0OWvwogowU4j8mmiG-152" value="Colaborador&lt;div&gt;Geral&lt;/div&gt;" style="shape=umlActor;verticalLabelPosition=bottom;verticalAlign=top;html=1;fillColor=#d5e8d4;strokeColor=#82b366;" vertex="1" parent="1">
          <mxGeometry x="347" y="850" width="30" height="60" as="geometry" />
        </mxCell>
        <mxCell id="Fcs0OWvwogowU4j8mmiG-153" value="Executor&lt;div&gt;Manutenção&lt;/div&gt;" style="shape=umlActor;verticalLabelPosition=bottom;verticalAlign=top;html=1;fillColor=#dae8fc;strokeColor=#6c8ebf;" vertex="1" parent="1">
          <mxGeometry x="332" y="1640" width="30" height="60" as="geometry" />
        </mxCell>
        <mxCell id="Fcs0OWvwogowU4j8mmiG-167" value="Executor&lt;div&gt;Manutenção&lt;/div&gt;" style="shape=umlActor;verticalLabelPosition=bottom;verticalAlign=top;html=1;fillColor=#dae8fc;strokeColor=#6c8ebf;" vertex="1" parent="1">
          <mxGeometry x="236" y="410" width="30" height="60" as="geometry" />
        </mxCell>
        <mxCell id="Fcs0OWvwogowU4j8mmiG-168" style="rounded=0;orthogonalLoop=1;jettySize=auto;html=1;exitX=0.5;exitY=0.5;exitDx=0;exitDy=0;exitPerimeter=0;entryX=0;entryY=1;entryDx=0;entryDy=0;" edge="1" parent="1" source="Fcs0OWvwogowU4j8mmiG-167" target="Fcs0OWvwogowU4j8mmiG-87">
          <mxGeometry relative="1" as="geometry">
            <mxPoint x="261" y="360" as="sourcePoint" />
            <mxPoint x="366" y="400" as="targetPoint" />
          </mxGeometry>
        </mxCell>
        <mxCell id="Fcs0OWvwogowU4j8mmiG-169" value="&lt;div&gt;RF006&lt;/div&gt;&lt;div&gt;Listar&lt;span style=&quot;background-color: initial;&quot;&gt;&amp;nbsp;OSs abertas&lt;/span&gt;&lt;/div&gt;" style="ellipse;whiteSpace=wrap;html=1;fillColor=#dae8fc;strokeColor=#6c8ebf;" vertex="1" parent="1">
          <mxGeometry x="150" y="1290" width="90" height="60" as="geometry" />
        </mxCell>
        <mxCell id="Fcs0OWvwogowU4j8mmiG-170" value="&lt;div&gt;RF007&lt;/div&gt;&lt;div&gt;Exibir detalhes da OS em atendimento&lt;/div&gt;" style="ellipse;whiteSpace=wrap;html=1;fillColor=#dae8fc;strokeColor=#6c8ebf;" vertex="1" parent="1">
          <mxGeometry x="370" y="1290" width="120" height="60" as="geometry" />
        </mxCell>
        <mxCell id="Fcs0OWvwogowU4j8mmiG-171" value="&amp;lt;&amp;lt;include&amp;gt;&amp;gt;" style="rounded=0;orthogonalLoop=1;jettySize=auto;html=1;exitX=1;exitY=0;exitDx=0;exitDy=0;endArrow=open;endFill=0;dashed=1;" edge="1" parent="1" source="Fcs0OWvwogowU4j8mmiG-169" target="Fcs0OWvwogowU4j8mmiG-176">
          <mxGeometry relative="1" as="geometry">
            <mxPoint x="319.9999999999998" y="1238.98" as="targetPoint" />
          </mxGeometry>
        </mxCell>
        <mxCell id="Fcs0OWvwogowU4j8mmiG-172" value="&amp;lt;&amp;lt;extends&amp;gt;&amp;gt;" style="rounded=0;orthogonalLoop=1;jettySize=auto;html=1;entryX=1;entryY=0.5;entryDx=0;entryDy=0;endArrow=open;endFill=0;dashed=1;exitX=0;exitY=0.5;exitDx=0;exitDy=0;" edge="1" parent="1" source="Fcs0OWvwogowU4j8mmiG-170" target="Fcs0OWvwogowU4j8mmiG-169">
          <mxGeometry relative="1" as="geometry">
            <mxPoint x="310" y="1360" as="sourcePoint" />
            <mxPoint x="330" y="1249" as="targetPoint" />
          </mxGeometry>
        </mxCell>
        <mxCell id="Fcs0OWvwogowU4j8mmiG-173" style="rounded=0;orthogonalLoop=1;jettySize=auto;html=1;exitX=0.5;exitY=0.5;exitDx=0;exitDy=0;exitPerimeter=0;entryX=0;entryY=0.5;entryDx=0;entryDy=0;" edge="1" parent="1" source="Fcs0OWvwogowU4j8mmiG-180" target="Fcs0OWvwogowU4j8mmiG-169">
          <mxGeometry relative="1" as="geometry">
            <mxPoint x="45" y="1320" as="sourcePoint" />
            <mxPoint x="183" y="1321" as="targetPoint" />
          </mxGeometry>
        </mxCell>
        <mxCell id="Fcs0OWvwogowU4j8mmiG-175" value="Projeto: ServFacil&lt;div&gt;UML - DCU&lt;/div&gt;" style="text;html=1;align=center;verticalAlign=middle;whiteSpace=wrap;rounded=0;" vertex="1" parent="1">
          <mxGeometry x="110" y="1220" width="156" height="40" as="geometry" />
        </mxCell>
        <mxCell id="Fcs0OWvwogowU4j8mmiG-176" value="&lt;div&gt;RF002&lt;/div&gt;Fazer login" style="ellipse;whiteSpace=wrap;html=1;fillColor=#fff2cc;strokeColor=#d6b656;" vertex="1" parent="1">
          <mxGeometry x="300" y="1220" width="90" height="60" as="geometry" />
        </mxCell>
        <mxCell id="Fcs0OWvwogowU4j8mmiG-177" value="&lt;div&gt;RF006.1&lt;/div&gt;&lt;div&gt;Categorizar por cor entre atribuídas e novas&lt;/div&gt;" style="ellipse;whiteSpace=wrap;html=1;fillColor=#dae8fc;strokeColor=#6c8ebf;" vertex="1" parent="1">
          <mxGeometry x="133" y="1420" width="124" height="70" as="geometry" />
        </mxCell>
        <mxCell id="Fcs0OWvwogowU4j8mmiG-178" value="&amp;lt;&amp;lt;include&amp;gt;&amp;gt;" style="rounded=0;orthogonalLoop=1;jettySize=auto;html=1;exitX=0.5;exitY=1;exitDx=0;exitDy=0;endArrow=open;endFill=0;dashed=1;entryX=0.5;entryY=0;entryDx=0;entryDy=0;" edge="1" parent="1" source="Fcs0OWvwogowU4j8mmiG-169" target="Fcs0OWvwogowU4j8mmiG-177">
          <mxGeometry relative="1" as="geometry">
            <mxPoint x="237" y="1309" as="sourcePoint" />
            <mxPoint x="317" y="1276" as="targetPoint" />
          </mxGeometry>
        </mxCell>
        <mxCell id="Fcs0OWvwogowU4j8mmiG-179" value="&lt;div&gt;RF006.2&lt;/div&gt;&lt;div&gt;Atribuir OS&lt;/div&gt;" style="ellipse;whiteSpace=wrap;html=1;fillColor=#dae8fc;strokeColor=#6c8ebf;" vertex="1" parent="1">
          <mxGeometry x="263" y="1414" width="94" height="50" as="geometry" />
        </mxCell>
        <mxCell id="Fcs0OWvwogowU4j8mmiG-180" value="Executor&lt;div&gt;Manutenção&lt;/div&gt;" style="shape=umlActor;verticalLabelPosition=bottom;verticalAlign=top;html=1;fillColor=#dae8fc;strokeColor=#6c8ebf;" vertex="1" parent="1">
          <mxGeometry x="40" y="1290" width="30" height="60" as="geometry" />
        </mxCell>
        <mxCell id="Fcs0OWvwogowU4j8mmiG-181" value="&lt;div&gt;RF006.3&lt;/div&gt;&lt;div&gt;Encerrar se Atribuída&lt;/div&gt;" style="ellipse;whiteSpace=wrap;html=1;fillColor=#dae8fc;strokeColor=#6c8ebf;" vertex="1" parent="1">
          <mxGeometry x="354" y="1364" width="94" height="50" as="geometry" />
        </mxCell>
        <mxCell id="Fcs0OWvwogowU4j8mmiG-182" value="&lt;div&gt;RF006.4&lt;/div&gt;&lt;div&gt;Adicionar comentário&lt;/div&gt;" style="ellipse;whiteSpace=wrap;html=1;fillColor=#dae8fc;strokeColor=#6c8ebf;" vertex="1" parent="1">
          <mxGeometry x="354" y="1470" width="100" height="60" as="geometry" />
        </mxCell>
        <mxCell id="Fcs0OWvwogowU4j8mmiG-183" value="&amp;lt;&amp;lt;include&amp;gt;&amp;gt;" style="rounded=0;orthogonalLoop=1;jettySize=auto;html=1;exitX=1;exitY=1;exitDx=0;exitDy=0;endArrow=open;endFill=0;dashed=1;entryX=0.256;entryY=0.122;entryDx=0;entryDy=0;entryPerimeter=0;" edge="1" parent="1" source="Fcs0OWvwogowU4j8mmiG-179" target="Fcs0OWvwogowU4j8mmiG-182">
          <mxGeometry relative="1" as="geometry">
            <mxPoint x="317" y="1276" as="targetPoint" />
            <mxPoint x="237" y="1309" as="sourcePoint" />
          </mxGeometry>
        </mxCell>
        <mxCell id="Fcs0OWvwogowU4j8mmiG-185" value="&amp;lt;&amp;lt;include&amp;gt;&amp;gt;" style="rounded=0;orthogonalLoop=1;jettySize=auto;html=1;exitX=0.5;exitY=1;exitDx=0;exitDy=0;endArrow=open;endFill=0;dashed=1;entryX=0.5;entryY=0;entryDx=0;entryDy=0;" edge="1" parent="1" source="Fcs0OWvwogowU4j8mmiG-181" target="Fcs0OWvwogowU4j8mmiG-182">
          <mxGeometry relative="1" as="geometry">
            <mxPoint x="386" y="1504" as="targetPoint" />
            <mxPoint x="325" y="1474" as="sourcePoint" />
          </mxGeometry>
        </mxCell>
        <mxCell id="Fcs0OWvwogowU4j8mmiG-186" value="&amp;lt;&amp;lt;extends&amp;gt;&amp;gt;" style="rounded=0;orthogonalLoop=1;jettySize=auto;html=1;endArrow=open;endFill=0;dashed=1;exitX=0.5;exitY=0;exitDx=0;exitDy=0;" edge="1" parent="1" source="Fcs0OWvwogowU4j8mmiG-179" target="Fcs0OWvwogowU4j8mmiG-169">
          <mxGeometry relative="1" as="geometry">
            <mxPoint x="380" y="1330" as="sourcePoint" />
            <mxPoint x="250" y="1330" as="targetPoint" />
          </mxGeometry>
        </mxCell>
        <mxCell id="Fcs0OWvwogowU4j8mmiG-187" value="&amp;lt;&amp;lt;extends&amp;gt;&amp;gt;" style="rounded=0;orthogonalLoop=1;jettySize=auto;html=1;endArrow=open;endFill=0;dashed=1;exitX=0;exitY=0;exitDx=0;exitDy=0;" edge="1" parent="1" source="Fcs0OWvwogowU4j8mmiG-181" target="Fcs0OWvwogowU4j8mmiG-169">
          <mxGeometry relative="1" as="geometry">
            <mxPoint x="325" y="1424" as="sourcePoint" />
            <mxPoint x="234" y="1353" as="targetPoint" />
          </mxGeometry>
        </mxCell>
        <mxCell id="Fcs0OWvwogowU4j8mmiG-188" value="&lt;div&gt;RF008&lt;/div&gt;&lt;div&gt;Obter dados da produção&lt;/div&gt;" style="ellipse;whiteSpace=wrap;html=1;fillColor=#dae8fc;strokeColor=#6c8ebf;" vertex="1" parent="1">
          <mxGeometry x="166" y="1834.67" width="106" height="70.67" as="geometry" />
        </mxCell>
        <mxCell id="Fcs0OWvwogowU4j8mmiG-189" value="&lt;div&gt;RF008.3&lt;/div&gt;&lt;div&gt;Categorizar por cor atribuídas e encerradas&lt;/div&gt;" style="ellipse;whiteSpace=wrap;html=1;fillColor=#dae8fc;strokeColor=#6c8ebf;" vertex="1" parent="1">
          <mxGeometry x="321" y="1840" width="169" height="60" as="geometry" />
        </mxCell>
        <mxCell id="Fcs0OWvwogowU4j8mmiG-190" value="&amp;lt;&amp;lt;include&amp;gt;&amp;gt;" style="rounded=0;orthogonalLoop=1;jettySize=auto;html=1;exitX=1;exitY=0;exitDx=0;exitDy=0;endArrow=open;endFill=0;dashed=1;" edge="1" parent="1" source="Fcs0OWvwogowU4j8mmiG-188" target="Fcs0OWvwogowU4j8mmiG-194">
          <mxGeometry relative="1" as="geometry">
            <mxPoint x="346.9999999999998" y="1788.98" as="targetPoint" />
          </mxGeometry>
        </mxCell>
        <mxCell id="Fcs0OWvwogowU4j8mmiG-191" style="rounded=0;orthogonalLoop=1;jettySize=auto;html=1;exitX=1;exitY=0.5;exitDx=0;exitDy=0;entryX=0;entryY=0.5;entryDx=0;entryDy=0;endArrow=open;endFill=0;dashed=1;" edge="1" parent="1" source="Fcs0OWvwogowU4j8mmiG-188" target="Fcs0OWvwogowU4j8mmiG-189">
          <mxGeometry relative="1" as="geometry">
            <mxPoint x="274" y="1829" as="sourcePoint" />
            <mxPoint x="357" y="1799" as="targetPoint" />
          </mxGeometry>
        </mxCell>
        <mxCell id="Fcs0OWvwogowU4j8mmiG-192" style="rounded=0;orthogonalLoop=1;jettySize=auto;html=1;exitX=0.5;exitY=0.5;exitDx=0;exitDy=0;exitPerimeter=0;entryX=0;entryY=0.5;entryDx=0;entryDy=0;" edge="1" parent="1" source="Fcs0OWvwogowU4j8mmiG-197" target="Fcs0OWvwogowU4j8mmiG-188">
          <mxGeometry relative="1" as="geometry">
            <mxPoint x="72" y="1870" as="sourcePoint" />
            <mxPoint x="210" y="1871" as="targetPoint" />
          </mxGeometry>
        </mxCell>
        <mxCell id="Fcs0OWvwogowU4j8mmiG-193" value="Projeto: ServFacil&lt;div&gt;UML - DCU&lt;/div&gt;" style="text;html=1;align=center;verticalAlign=middle;whiteSpace=wrap;rounded=0;" vertex="1" parent="1">
          <mxGeometry x="138" y="1760" width="156" height="40" as="geometry" />
        </mxCell>
        <mxCell id="Fcs0OWvwogowU4j8mmiG-194" value="&lt;div&gt;RF008.1&lt;/div&gt;&lt;div&gt;Listar todas as OSs atendidas e atribuidas&lt;/div&gt;" style="ellipse;whiteSpace=wrap;html=1;fillColor=#dae8fc;strokeColor=#6c8ebf;" vertex="1" parent="1">
          <mxGeometry x="341" y="1760" width="110" height="60" as="geometry" />
        </mxCell>
        <mxCell id="Fcs0OWvwogowU4j8mmiG-195" value="&lt;div&gt;RF008.2&lt;/div&gt;&lt;div&gt;Filtrar por data&lt;/div&gt;" style="ellipse;whiteSpace=wrap;html=1;fillColor=#dae8fc;strokeColor=#6c8ebf;" vertex="1" parent="1">
          <mxGeometry x="341" y="1920" width="98" height="50" as="geometry" />
        </mxCell>
        <mxCell id="Fcs0OWvwogowU4j8mmiG-196" value="&amp;lt;&amp;lt;extends&amp;gt;&amp;gt;" style="rounded=0;orthogonalLoop=1;jettySize=auto;html=1;exitX=0;exitY=0;exitDx=0;exitDy=0;entryX=1;entryY=1;entryDx=0;entryDy=0;endArrow=open;endFill=0;dashed=1;" edge="1" parent="1" source="Fcs0OWvwogowU4j8mmiG-195" target="Fcs0OWvwogowU4j8mmiG-188">
          <mxGeometry relative="1" as="geometry">
            <mxPoint x="446" y="1940" as="sourcePoint" />
            <mxPoint x="264" y="1901" as="targetPoint" />
          </mxGeometry>
        </mxCell>
        <mxCell id="Fcs0OWvwogowU4j8mmiG-197" value="Executor&lt;div&gt;Manutenção&lt;/div&gt;" style="shape=umlActor;verticalLabelPosition=bottom;verticalAlign=top;html=1;fillColor=#dae8fc;strokeColor=#6c8ebf;" vertex="1" parent="1">
          <mxGeometry x="61" y="1840" width="30" height="60" as="geometry" />
        </mxCell>
        <mxCell id="Fcs0OWvwogowU4j8mmiG-198" value="&lt;div&gt;RF009&lt;/div&gt;&lt;div&gt;Analisar Dashboard&lt;/div&gt;" style="ellipse;whiteSpace=wrap;html=1;fillColor=#dae8fc;strokeColor=#6c8ebf;" vertex="1" parent="1">
          <mxGeometry x="407.5" y="2064.67" width="106" height="70.67" as="geometry" />
        </mxCell>
        <mxCell id="Fcs0OWvwogowU4j8mmiG-199" value="&lt;div&gt;RF009.2&lt;/div&gt;&lt;div&gt;Exibir gráfico de colunas da última semana&lt;/div&gt;" style="ellipse;whiteSpace=wrap;html=1;fillColor=#dae8fc;strokeColor=#6c8ebf;" vertex="1" parent="1">
          <mxGeometry x="618" y="2050" width="169" height="60" as="geometry" />
        </mxCell>
        <mxCell id="Fcs0OWvwogowU4j8mmiG-200" value="&amp;lt;&amp;lt;include&amp;gt;&amp;gt;" style="rounded=0;orthogonalLoop=1;jettySize=auto;html=1;exitX=1;exitY=0;exitDx=0;exitDy=0;endArrow=open;endFill=0;dashed=1;" edge="1" parent="1" source="Fcs0OWvwogowU4j8mmiG-198" target="Fcs0OWvwogowU4j8mmiG-204">
          <mxGeometry relative="1" as="geometry">
            <mxPoint x="588.4999999999998" y="2018.98" as="targetPoint" />
          </mxGeometry>
        </mxCell>
        <mxCell id="Fcs0OWvwogowU4j8mmiG-201" style="rounded=0;orthogonalLoop=1;jettySize=auto;html=1;exitX=1;exitY=0.5;exitDx=0;exitDy=0;entryX=0;entryY=0.5;entryDx=0;entryDy=0;endArrow=open;endFill=0;dashed=1;" edge="1" parent="1" source="Fcs0OWvwogowU4j8mmiG-198" target="Fcs0OWvwogowU4j8mmiG-199">
          <mxGeometry relative="1" as="geometry">
            <mxPoint x="515.5" y="2059" as="sourcePoint" />
            <mxPoint x="598.5" y="2029" as="targetPoint" />
          </mxGeometry>
        </mxCell>
        <mxCell id="Fcs0OWvwogowU4j8mmiG-202" style="rounded=0;orthogonalLoop=1;jettySize=auto;html=1;exitX=0.5;exitY=0.5;exitDx=0;exitDy=0;exitPerimeter=0;entryX=0;entryY=0.5;entryDx=0;entryDy=0;" edge="1" parent="1" source="Fcs0OWvwogowU4j8mmiG-207" target="Fcs0OWvwogowU4j8mmiG-198">
          <mxGeometry relative="1" as="geometry">
            <mxPoint x="313.5" y="2100" as="sourcePoint" />
            <mxPoint x="451.5" y="2101" as="targetPoint" />
          </mxGeometry>
        </mxCell>
        <mxCell id="Fcs0OWvwogowU4j8mmiG-203" value="Projeto: ServFacil&lt;div&gt;UML - DCU&lt;/div&gt;" style="text;html=1;align=center;verticalAlign=middle;whiteSpace=wrap;rounded=0;" vertex="1" parent="1">
          <mxGeometry x="379.5" y="1990" width="156" height="40" as="geometry" />
        </mxCell>
        <mxCell id="Fcs0OWvwogowU4j8mmiG-204" value="&lt;div&gt;RF009.1&lt;/div&gt;&lt;div&gt;Exibir gráfico de pizza por colaborador&lt;/div&gt;" style="ellipse;whiteSpace=wrap;html=1;fillColor=#dae8fc;strokeColor=#6c8ebf;" vertex="1" parent="1">
          <mxGeometry x="567.5" y="1990" width="140" height="60" as="geometry" />
        </mxCell>
        <mxCell id="Fcs0OWvwogowU4j8mmiG-205" value="&lt;div&gt;RF009.3&lt;/div&gt;&lt;div&gt;Exibir tabela de OSs fechadas&lt;/div&gt;" style="ellipse;whiteSpace=wrap;html=1;fillColor=#dae8fc;strokeColor=#6c8ebf;" vertex="1" parent="1">
          <mxGeometry x="611.5" y="2120" width="130" height="50" as="geometry" />
        </mxCell>
        <mxCell id="Fcs0OWvwogowU4j8mmiG-207" value="Executor&lt;div&gt;Manutenção&lt;/div&gt;" style="shape=umlActor;verticalLabelPosition=bottom;verticalAlign=top;html=1;fillColor=#dae8fc;strokeColor=#6c8ebf;" vertex="1" parent="1">
          <mxGeometry x="302.5" y="2070" width="30" height="60" as="geometry" />
        </mxCell>
        <mxCell id="Fcs0OWvwogowU4j8mmiG-208" value="&lt;div&gt;RF009.4&lt;/div&gt;&lt;div&gt;Exibir estatísticas&lt;/div&gt;&lt;div&gt;(Total, tempo médio, max e min)&lt;/div&gt;" style="ellipse;whiteSpace=wrap;html=1;fillColor=#dae8fc;strokeColor=#6c8ebf;" vertex="1" parent="1">
          <mxGeometry x="564.5" y="2170" width="130" height="60" as="geometry" />
        </mxCell>
        <mxCell id="Fcs0OWvwogowU4j8mmiG-209" style="rounded=0;orthogonalLoop=1;jettySize=auto;html=1;entryX=0;entryY=0.5;entryDx=0;entryDy=0;endArrow=open;endFill=0;dashed=1;" edge="1" parent="1" source="Fcs0OWvwogowU4j8mmiG-198" target="Fcs0OWvwogowU4j8mmiG-205">
          <mxGeometry relative="1" as="geometry">
            <mxPoint x="523.5" y="2110" as="sourcePoint" />
            <mxPoint x="606.5" y="2110" as="targetPoint" />
          </mxGeometry>
        </mxCell>
        <mxCell id="Fcs0OWvwogowU4j8mmiG-210" style="rounded=0;orthogonalLoop=1;jettySize=auto;html=1;exitX=1;exitY=1;exitDx=0;exitDy=0;entryX=0.325;entryY=-0.015;entryDx=0;entryDy=0;endArrow=open;endFill=0;dashed=1;entryPerimeter=0;" edge="1" parent="1" source="Fcs0OWvwogowU4j8mmiG-198" target="Fcs0OWvwogowU4j8mmiG-208">
          <mxGeometry relative="1" as="geometry">
            <mxPoint x="533.5" y="2120" as="sourcePoint" />
            <mxPoint x="616.5" y="2120" as="targetPoint" />
          </mxGeometry>
        </mxCell>
        <mxCell id="Fcs0OWvwogowU4j8mmiG-226" value="&lt;div&gt;RF009.6&lt;/div&gt;&lt;div&gt;Filtrar por Data&lt;/div&gt;" style="ellipse;whiteSpace=wrap;html=1;fillColor=#dae8fc;strokeColor=#6c8ebf;" vertex="1" parent="1">
          <mxGeometry x="407.5" y="2190" width="100" height="40" as="geometry" />
        </mxCell>
        <mxCell id="Fcs0OWvwogowU4j8mmiG-227" style="rounded=0;orthogonalLoop=1;jettySize=auto;html=1;entryX=0.5;entryY=1;entryDx=0;entryDy=0;endArrow=open;endFill=0;dashed=1;exitX=0.5;exitY=0;exitDx=0;exitDy=0;" edge="1" parent="1" source="Fcs0OWvwogowU4j8mmiG-226" target="Fcs0OWvwogowU4j8mmiG-198">
          <mxGeometry relative="1" as="geometry">
            <mxPoint x="482.5" y="2160" as="sourcePoint" />
            <mxPoint x="574.5" y="2169" as="targetPoint" />
          </mxGeometry>
        </mxCell>
        <mxCell id="Fcs0OWvwogowU4j8mmiG-228" value="&lt;div&gt;RF009.5&lt;/div&gt;&lt;div&gt;Filtrar por Colaborador&lt;/div&gt;" style="ellipse;whiteSpace=wrap;html=1;fillColor=#dae8fc;strokeColor=#6c8ebf;" vertex="1" parent="1">
          <mxGeometry x="488" y="2220" width="108.5" height="50" as="geometry" />
        </mxCell>
        <mxCell id="Fcs0OWvwogowU4j8mmiG-229" style="rounded=0;orthogonalLoop=1;jettySize=auto;html=1;entryX=0.668;entryY=0.997;entryDx=0;entryDy=0;endArrow=open;endFill=0;dashed=1;exitX=0.5;exitY=0;exitDx=0;exitDy=0;entryPerimeter=0;" edge="1" parent="1" source="Fcs0OWvwogowU4j8mmiG-228" target="Fcs0OWvwogowU4j8mmiG-198">
          <mxGeometry relative="1" as="geometry">
            <mxPoint x="452.5" y="2200" as="sourcePoint" />
            <mxPoint x="470.5" y="2145" as="targetPoint" />
          </mxGeometry>
        </mxCell>
      </root>
    </mxGraphModel>
  </diagram>
</mxfile>
